<?xml version="1.0" standalone="no"?>
<!DOCTYPE svg PUBLIC "-//W3C//DTD SVG 20010904//EN"
 "http://www.w3.org/TR/2001/REC-SVG-20010904/DTD/svg10.dtd">
<svg version="1.0" xmlns="http://www.w3.org/2000/svg"
 width="16.000000pt" height="16.000000pt" viewBox="0 0 16.000000 16.000000"
 preserveAspectRatio="xMidYMid meet">
<metadata>
Created by potrace 1.11, written by Peter Selinger 2001-2013
</metadata>
<g transform="translate(0.000000,16.000000) scale(0.001852,-0.001852)"
fill="#000000" stroke="none">
<path d="M2455 7557 l-1870 -1082 -3 -2162 -2 -2161 292 -168 c161 -92 588
-337 948 -544 360 -207 1069 -614 1574 -905 506 -291 925 -528 931 -528 6 0
425 237 931 528 505 291 1214 698 1574 905 360 207 787 452 948 544 l292 168
-2 2161 -3 2162 -1835 1062 c-1009 584 -1851 1071 -1870 1082 l-36 20 -1869
-1082z m3260 -831 l1380 -794 3 -1610 2 -1611 -292 -174 -293 -175 -3 1074 -2
1074 -480 0 -480 0 0 -1347 0 -1348 -347 -200 c-190 -110 -352 -201 -360 -203
-11 -3 -13 252 -13 1547 l0 1551 -475 0 -475 0 -2 -1568 -3 -1569 -360 203
-360 204 -5 1357 -5 1358 -485 0 -485 0 -3 -1073 c-1 -595 -6 -1072 -11 -1070
-4 2 -146 82 -314 178 l-306 175 0 1615 0 1615 1387 792 c763 436 1392 792
1397 792 6 0 631 -357 1390 -793z"/>
<path d="M4180 6585 c0 -113 -2 -205 -4 -205 -3 0 -83 27 -178 60 -95 33 -175
60 -179 60 -11 0 -112 -291 -103 -299 5 -5 86 -37 179 -71 94 -35 174 -67 179
-71 4 -4 -41 -69 -101 -146 -60 -76 -113 -143 -116 -149 -6 -10 201 -176 237
-190 7 -3 58 53 127 141 62 80 117 145 120 145 3 0 57 -65 120 -145 62 -80
117 -145 121 -145 10 0 248 179 248 186 0 3 -47 73 -105 155 -58 83 -105 154
-105 158 0 5 75 34 168 66 92 32 172 60 178 64 7 4 -7 54 -43 150 -29 80 -55
147 -57 149 -3 2 -79 -24 -171 -57 -92 -34 -169 -61 -171 -61 -2 0 -4 92 -4
205 l0 205 -170 0 -170 0 0 -205z"/>
</g>
</svg>
