<?xml version="1.0" standalone="no"?>
<!DOCTYPE svg PUBLIC "-//W3C//DTD SVG 20010904//EN"
 "http://www.w3.org/TR/2001/REC-SVG-20010904/DTD/svg10.dtd">
<svg version="1.0" xmlns="http://www.w3.org/2000/svg"
 width="16.000000pt" height="16.000000pt" viewBox="0 0 16.000000 16.000000"
 preserveAspectRatio="xMidYMid meet">
<metadata>
Created by potrace 1.11, written by Peter Selinger 2001-2013
</metadata>
<g transform="translate(0.000000,16.000000) scale(0.002544,-0.002544)"
fill="#000000" stroke="none">
<path d="M3045 6214 c-44 -26 -94 -54 -111 -64 -16 -10 -88 -51 -160 -92 -334
-193 -541 -313 -559 -323 -11 -6 -39 -23 -62 -38 -24 -15 -44 -27 -47 -27 -2
0 -64 -35 -138 -78 -74 -43 -141 -82 -149 -86 -8 -4 -23 -12 -34 -19 -11 -7
-71 -42 -133 -77 -62 -36 -128 -73 -145 -84 -38 -22 -600 -346 -908 -524
l-144 -82 1 -1543 c1 -848 2 -1545 3 -1548 1 -6 473 -282 766 -448 33 -19 74
-42 90 -51 17 -10 127 -73 245 -142 184 -107 672 -389 1394 -805 l179 -103
181 104 c100 57 199 114 221 126 22 12 45 26 50 30 6 4 30 19 55 32 25 14 117
67 205 118 88 51 176 101 195 112 19 11 49 27 65 37 51 30 489 283 1190 686
165 95 349 201 410 236 l110 64 0 1535 c0 844 -1 1542 -3 1550 -3 12 -348 215
-781 461 -25 15 -176 102 -336 194 -159 92 -303 175 -320 185 -40 23 -269 155
-797 458 -240 139 -440 252 -445 252 -4 0 -44 -21 -88 -46z m451 -954 c201
-116 379 -219 397 -229 37 -21 858 -496 899 -520 15 -9 96 -56 180 -104 l153
-88 0 -1149 0 -1149 -207 -121 c-114 -66 -211 -120 -215 -120 -4 0 -7 342 -7
760 l1 760 -41 1 c-207 3 -637 1 -641 -3 -3 -3 -5 -437 -5 -964 l0 -959 -252
-145 c-138 -80 -255 -146 -260 -148 -4 -2 -8 496 -8 1107 0 882 -3 1111 -12
1112 -16 0 -636 0 -660 0 -17 -1 -18 -63 -20 -1121 l-3 -1120 -250 147 c-137
80 -252 148 -255 150 -3 3 -5 442 -5 976 l0 972 -345 0 -345 0 0 -771 c0 -615
-2 -771 -12 -767 -7 3 -109 60 -225 127 l-213 122 -3 1151 -2 1151 170 98 c94
55 178 104 188 109 9 6 40 23 67 38 28 15 66 37 85 48 36 22 551 320 1130 654
179 103 329 191 335 196 5 5 11 9 13 9 2 0 168 -95 368 -210z"/>
<path d="M3035 4799 c0 -77 -2 -145 -6 -151 -4 -7 -12 -6 -25 1 -18 10 -196
77 -222 83 -12 3 -22 -20 -72 -159 -10 -29 -15 -55 -11 -57 4 -3 30 -13 57
-22 27 -9 84 -29 126 -46 l77 -29 -83 -111 -84 -111 90 -69 c49 -37 91 -68 93
-68 2 0 39 46 81 103 42 56 80 106 84 110 5 5 27 -17 51 -50 24 -32 46 -60 49
-63 3 -3 18 -24 34 -48 16 -24 33 -45 37 -48 7 -4 71 40 178 122 12 9 1 29
-65 118 -43 59 -80 110 -82 114 -1 4 24 17 55 29 32 11 91 33 131 48 39 15 72
28 72 30 0 2 -16 49 -36 105 l-37 102 -35 -7 c-19 -3 -42 -10 -51 -15 -55 -29
-170 -66 -174 -56 -2 6 -3 73 -2 149 l1 137 -116 0 -116 0 1 -141z"/>
</g>
</svg>
