<svg xmlns="http://www.w3.org/2000/svg" width="126" height="39" viewBox="0 0 126 39"><title>GobMx Logo 2@3x</title><desc>Created with Sketch.</desc><path fill="#fff" d="M16.7 12.395c3.112 0 4.686.99 5.552 1.91h.192c.097-1.193.322-2.012 1.925-2.012.803 0 1.765.205 2.343.443l-.225 2.252c-.673-.103-1.123-.103-1.51-.103-1.38 0-1.41.784-1.475 1.944.16.51.256 1.193.256 1.67 0 3.685-2.922 5.696-7.287 5.696-.16 0-.513 0-.738-.035-1.027.41-2.73 1.3-2.73 2.595 0 1.022 1.06 1.262 1.8 1.262h5.487c4.012 0 6.16 1.57 6.16 4.877C26.427 37.84 20.52 39 16.347 39c-2.696 0-7.895-.614-7.895-4.64 0-2.353 1.574-3.512 2.954-4.296v-.205c-1.7-.58-1.99-1.605-1.99-2.39 0-2.012 1.958-3.274 3.66-3.92l-.032-.172c-2.247-.75-3.595-2.457-3.595-4.912.03-3.752 2.823-6.07 7.252-6.07zM15.51 30.78c-.9.17-2.952 1.09-2.952 3 0 2.15 2.567 2.56 4.556 2.56 2.312 0 5.168-.717 5.2-3.274 0-1.365-.706-2.286-2.73-2.286h-4.074zm1.092-9.04c2.053 0 3.402-1.125 3.402-3.342 0-2.218-1.188-3.513-3.24-3.513-2.184 0-3.307 1.33-3.307 3.547-.002 1.672.96 3.308 3.144 3.308zM27.243 21.98c0-6.175 2.983-9.585 8.505-9.585 5.552 0 8.473 3.34 8.473 9.584 0 6.786-3.466 9.48-8.505 9.48-5.006 0-8.472-2.795-8.472-9.48zm12.805 0c0-4.708-1.765-6.38-4.3-6.38-2.568 0-4.334 1.638-4.334 6.412 0 4.265 1.668 6.275 4.334 6.275 2.695 0 4.3-1.975 4.3-6.308zM46.803 4.89h4.107v6.312l-.096 3.65.16.067c1.156-1.195 2.6-2.525 5.04-2.525 4.525 0 6.965 4.195 6.965 9.208 0 6.106-2.666 9.857-8.38 9.857-1.83 0-3.787-.237-5.873-1.33l-.673 1.024h-1.252V4.89zm4.107 13.2v9.415c1.06.546 2.28.853 3.275.853 3.37 0 4.62-2.83 4.62-6.548 0-3.582-1.41-6.173-3.722-6.173-1.67 0-3.144 1.022-4.173 2.454z"/><path fill="#D03A21" d="M66.586 26.65c1.38 0 2.41 1.025 2.41 2.456 0 1.365-1.03 2.354-2.41 2.354-1.38 0-2.374-.99-2.374-2.354 0-1.43.995-2.455 2.374-2.455z"/><path fill="#fff" d="M115.27 26.89c-1.446-2.114-1.927-2.93-3.47-5.524.9-1.397 3.18-5.015 5.266-8.664H112.7c-1.667 3.172-3.08 5.458-3.657 6.48h-.16c-.898-1.466-1.574-2.626-2.6-4.195-1.315-1.98-2.055-2.354-3.82-2.354-.546 0-1.026.034-1.637.068v2.832c.61 0 1.315.307 2.054 1.365 1.22 1.74 1.893 2.863 3.083 4.774-.763 1.177-2 3.186-2.483 3.824-.487.642-1.623 2.113-3.162 2.113-2.073 0-2.104-1.693-2.104-2.857v-5.33c0-4.332-1.767-7.026-5.683-7.026-1.987 0-4.042.818-6.032 2.9h-.226c-.865-1.844-2.44-2.9-4.75-2.9-2.084 0-3.786.785-5.713 2.763l-.225-.034-.418-2.422h-3.434v18.455h4.108V18.398c.93-1.466 2.663-2.524 4.238-2.524 1.925 0 2.855 1.365 2.855 4.16v11.122h4.106V18.193c.963-1.466 2.6-2.32 4.173-2.32 1.96 0 2.89 1.366 2.89 4.162l-.01 5.716c0 2.916 1.76 5.406 5.567 5.406 5.365 0 6.384-2.775 7.27-4.185.74-1.175 1.76-3.047 1.76-3.047h.157c1.092 1.842 1.895 3.276 3.085 4.98 1.345 1.876 2.084 2.422 3.722 2.422.642 0 1.41-.068 1.895-.17V28.22c-.965-.032-1.61-.476-2.28-1.33z"/><g fill="#fff"><path d="M89.662.445c.534-.112 1.375-.196 2.23-.196 1.22 0 2.006.21 2.595.686.49.365.783.926.783 1.67 0 .91-.603 1.71-1.598 2.074v.028c.896.225 1.947.968 1.947 2.37 0 .813-.323 1.43-.8 1.893-.657.604-1.725.885-3.266.885-.84 0-1.485-.056-1.894-.112V.445h.002zm1.22 3.87h1.108c1.29 0 2.048-.673 2.048-1.585 0-1.107-.842-1.542-2.078-1.542-.558 0-.88.042-1.077.084v3.043zm0 4.53c.24.042.59.055 1.023.055 1.264 0 2.427-.463 2.427-1.837 0-1.29-1.106-1.822-2.438-1.822h-1.01v3.604zM102.157 5.34H98.48v3.405h4.095V9.77h-5.312V.32h5.104V1.34H98.48V4.33h3.677v1.01zM106.18 1.356h-2.874V.32h6.998v1.036h-2.89V9.77h-1.234V1.356zM111.832 6.797l-.982 2.973h-1.262l3.208-9.45h1.475l3.228 9.45h-1.306l-1.01-2.973h-3.35zm3.097-.954l-.924-2.72c-.212-.616-.353-1.178-.492-1.725h-.03c-.14.56-.295 1.136-.476 1.71l-.926 2.735h2.847z"/></g></svg>