<svg width="172" height="70" viewBox="0 0 172 70" xmlns="http://www.w3.org/2000/svg"><title>Imported Layers@3x</title><desc>Created with Sketch.</desc><g fill="none"><path d="M95.464 32.1h3.596l1.16-7.987h.04l3.19 7.988h1.437l3.336-7.987h.036l1.014 7.988h3.614l-2.1-13.876h-3.597l-2.986 7.417-2.822-7.416h-3.558L95.464 32.1zm25.168-18.5l-2.046-1.474-2.6 3.165 1.494 1.087 3.152-2.777zm1.697 6.68v-3.056h-7.91V31.1h7.91v-3.055h-4.3v-2.393h4.077v-3.054h-4.076V20.28h4.3zm6.34 3.403l-5.44 7.418h4.372l3.19-4.527 2.91 4.528h4.355l-5.146-7.417 4.445-6.46h-4.444l-2.118 3.59-2.122-3.59h-4.443l4.443 6.46zm10.436 7.418h3.614V17.225h-3.614V31.1zm15.912-13.543c-1.07-.443-2.14-.7-3.302-.7-1.953 0-3.927.846-5.29 2.244-1.328 1.363-2.047 3.185-2.047 5.08 0 2.06.7 3.865 2.23 5.246 1.438 1.307 3.283 2.042 5.218 2.042 1.125 0 1.992-.276 3.19-.644V26.5c-.757.9-1.935 1.47-3.116 1.47-2.25 0-3.76-1.58-3.76-3.772 0-2.152 1.492-3.845 3.704-3.845 1.237 0 2.434.534 3.172 1.528v-4.323zm9.218-.793c-4 0-7.687 2.944-7.687 7.14 0 4.49 3.224 7.656 7.686 7.656 4.463 0 7.69-3.166 7.69-7.656 0-4.196-3.69-7.14-7.69-7.14zm0 3.496c2.16 0 3.927 1.748 3.927 3.663 0 2.393-1.767 4.14-3.927 4.14-2.156 0-3.926-1.747-3.926-4.14 0-1.915 1.77-3.663 3.926-3.663z" fill="#fff"/><path d="M.04 32.102h3.586l1.158-7.963h.036L8 32.1h1.433l3.328-7.963h.037l1.01 7.962h3.603L15.315 18.27H11.73l-2.977 7.392-2.81-7.392H2.394L.04 32.102M36.53 18.27h-3.917l5.828 13.832h2.794L47.15 18.27h-3.913l-3.364 8.402-3.344-8.402m19.446 3.045V18.27h-7.884v13.832h7.884v-3.045h-4.28v-2.385h4.06v-3.046h-4.06v-2.31h4.28m9.455 5.117c1.97-.35 3.034-2 3.034-3.906 0-2.954-2.077-4.257-4.814-4.257h-5.385v13.832h3.602v-5.32h.035l3.4 5.32h4.485l-4.356-5.67m-3.563-5.41h.35c1.174 0 2.496.22 2.496 1.725 0 1.503-1.322 1.722-2.497 1.722h-.35V21.02" fill="#fff"/><path d="M25.608 17.812c-3.987 0-7.662 2.935-7.662 7.117 0 4.474 3.216 7.63 7.662 7.63 4.45 0 7.665-3.156 7.665-7.63 0-4.183-3.675-7.118-7.665-7.118zm0 10.262c-2.148 0-3.913-1.742-3.913-4.125 0-1.91 1.765-3.654 3.913-3.654 2.15 0 3.916 1.744 3.916 3.653 0 2.382-1.765 4.124-3.916 4.124z" fill="#fff"/><path d="M72.53 60.274c0 5.08-4.075 9.197-9.103 9.197s-9.103-4.116-9.103-9.196 4.075-9.197 9.103-9.197 9.103 4.116 9.103 9.197" fill="#C1293A"/><path d="M59.207 54.35s.775-.316 1.512-.403c.88-.13 1.884.062 1.884.062s-.457.53-.844 1.29c-.57 1.116-.716 1.926-.716 1.926s-.482-.112-1.37-.07c-.888.043-1.486.196-1.486.196s.082-.917.364-1.722c.282-.804.655-1.28.655-1.28" fill="#fff"/><path d="M83.4 42.17c0 4.333-3.477 7.846-7.767 7.846-4.29 0-7.766-3.513-7.766-7.847 0-4.335 3.477-7.848 7.766-7.848 4.29 0 7.768 3.513 7.768 7.847" fill="#C1293A"/><path d="M72.033 37.116s.66-.272 1.29-.345c.752-.11 1.608.055 1.608.055s-.39.453-.72 1.102c-.484.95-.61 1.642-.61 1.642s-.41-.097-1.17-.06c-.756.037-1.265.166-1.265.166s.07-.783.31-1.468c.24-.687.558-1.092.558-1.092" fill="#fff"/><path d="M90.824 25.335c0 3.866-3.1 6.998-6.926 6.998-3.825 0-6.925-3.132-6.925-6.998 0-3.864 3.1-6.997 6.925-6.997 3.826 0 6.926 3.133 6.926 6.997" fill="#D1D1CE"/><path d="M80.69 20.83s.587-.24 1.147-.307c.67-.1 1.436.047 1.436.047s-.348.404-.644.984c-.434.848-.545 1.464-.545 1.464s-.366-.086-1.043-.054c-.675.032-1.13.15-1.13.15s.063-.7.278-1.31c.214-.612.5-.974.5-.974" fill="#fff"/><path d="M77.782 13.465c0 2.692-2.16 4.873-4.823 4.873-2.665 0-4.824-2.18-4.824-4.873 0-2.69 2.16-4.87 4.823-4.87 2.662 0 4.822 2.18 4.822 4.87" fill="#217C40"/><path d="M70.724 10.327s.41-.166.8-.212c.467-.07.998.032.998.032s-.24.28-.447.685c-.3.59-.378 1.02-.378 1.02s-.256-.06-.727-.037c-.47.023-.786.103-.786.103s.043-.486.192-.913c.15-.425.348-.678.348-.678" fill="#fff"/><path d="M67.735 4.92c0 2.23-1.79 4.035-3.995 4.035-2.207 0-3.995-1.806-3.995-4.036 0-2.23 1.788-4.037 3.995-4.037 2.205 0 3.995 1.808 3.995 4.036" fill="#217C40"/><path d="M61.888 2.32s.34-.138.662-.176c.388-.058.828.027.828.027s-.2.234-.37.57c-.25.486-.314.842-.314.842s-.213-.05-.602-.03c-.39.018-.65.087-.65.087s.035-.404.157-.758c.124-.353.288-.56.288-.56" fill="#fff"/></g></svg>