<svg xmlns="http://www.w3.org/2000/svg" viewBox="0 0 200 200"><rect width="200" height="200" rx="100" ry="100" fill="#fffcf5"/><path d="M100 52.8L60 75.9v46.2l40 23.1 40-23.1V75.9zm29.7 63.4l-6.4 3.7V97h-10.2v28.8l-7.7 4.5V97H95.1v33.5l-7.8-4.5V97H77.1v23.1l-6.8-3.9V81.8L100 64.7l29.7 17.2z" fill="#2c466d"/><path fill="#8f2e2e" d="M107 78.8l-1.1-3.2L102 77v-4.4h-3.5V77l-3.9-1.4-1.2 3.3 4 1.4-2.5 3.3 2.8 2.1 2.5-3.3 2.6 3.3 2.7-2-2.5-3.4 4-1.5"/><g fill="#1d2b42"><path d="M59.9 145.8l3.6 3-.6.7-2.7-2.3-1.8 2.2 2.5 2.1-.6.7-2.5-2.1-2.5 3-.9-.7zM70.3 158.2c-1.5 2.6-3.9 3-5.8 1.9s-2.5-3.5-1.1-5.8 3.8-3 5.8-1.9 2.5 3.6 1.1 5.8zm-5.9-3.3c-1 1.6-.9 3.5.6 4.5s3.2 0 4.2-1.7 1-3.5-.6-4.5-3.2 0-4.1 1.6zM76.3 156.2l-1.8 4.8c-.7 1.8-.2 2.9.9 3.3s2.3 0 3-1.8l1.9-4.8 1.1.4-1.8 4.7c-1 2.5-2.7 3-4.4 2.3s-2.5-2.1-1.6-4.6l1.8-4.8zM82.9 167.6l1.8-8.5 1.2.2 1.8 4.9a24.8 24.8 0 0 1 1 3.1c.1-1.2.3-2.2.6-3.5l.7-3.6 1 .2-1.8 8.5-1.1-.2-1.8-4.9a27.6 27.6 0 0 1-1-3.2c-.2 1.1-.3 2.1-.6 3.5l-.7 3.6zM94.5 160.9h2.4a5 5 0 0 1 3.5 1.2 4 4 0 0 1 1.1 3.2 4.6 4.6 0 0 1-1.4 3.3 5.4 5.4 0 0 1-3.9 1.1l-2-.2zm.8 7.7h1.1a3.3 3.3 0 0 0 3.8-3.6c.1-2.1-1-3.4-3.4-3.5h-1.2zM106.7 166.6l-.6 2.8h-1.2l1.9-9 1.3-.2 4 8.3H111l-1.3-2.6zm2.7-1.2l-1.2-2.4-.6-1.5c-.1.5-.1 1.1-.2 1.6l-.5 2.6zM114.8 160.1l-2.6.7-.2-.9 6.2-1.6.2.9-2.6.7 1.9 7.5-1.1.3zM121.9 156.9l3.1 8.1-1.1.4-3.1-8.1zM133.8 155.8c1.4 2.6.5 4.9-1.4 6s-4.3.3-5.5-2.1-.6-4.8 1.4-5.9 4.3-.2 5.5 2zm-5.9 3.3c.9 1.6 2.5 2.6 4.1 1.8s1.7-2.8.8-4.5-2.5-2.7-4.1-1.8-1.7 2.8-.8 4.5zM139.6 157.3l-5.3-6.9 1-.8 4.9 1.8 3 1.3-2.3-2.7-2.2-2.9.8-.6 5.3 6.9-.9.7-4.9-1.8-3.1-1.3 2.3 2.8 2.3 2.9z"/></g><g fill="#1d2b42"><path d="M53.2 46.3l-2.1 1.6-.6-.8 5.1-3.9.6.8-2.1 1.6 4.7 6.2-.9.7zM59.9 40.5l1.8 3.2 3.7-2.1-1.8-3.2 1-.6 4.3 7.6-1 .6-2-3.6-3.7 2.1 2 3.6-1 .6-4.3-7.6zM74.9 38.5l-3.1 1.3 1.2 2.9 3.5-1.4.4.9-4.5 1.8-3.4-8.2 4.4-1.8.4.9-3.3 1.3 1 2.6 3.1-1.3zM90.9 34.2c.5 3-1 4.8-3.2 5.2s-4.2-1.1-4.6-3.7.9-4.8 3.2-5.2 4.2 1.1 4.6 3.7zm-6.6 1.3c.3 1.8 1.6 3.3 3.4 3s2.5-2.1 2.1-4.1-1.5-3.3-3.4-3-2.5 2.2-2.1 4.1zM94.6 29.7l2.1-.2a3.6 3.6 0 0 1 2.5.6 2.3 2.3 0 0 1 .8 1.8 2.6 2.6 0 0 1-.6 1.9 3.6 3.6 0 0 1-2.6 1.1h-.9v3.5h-1zm1.3 4.2h.9c1.4-.1 2.2-.7 2.1-1.9s-.9-1.7-2.1-1.6h-1.1zM108.4 34.5l-3.4-.3-.3 3.1 3.8.3v.9l-4.9-.4.7-8.7 4.7.4v.9l-3.6-.3-.2 2.7 3.4.3zM111.7 39.1l1.9-8.5 1.2.3 1.8 4.9a24.7 24.7 0 0 1 .9 3.1c.1-1.2.4-2.2.6-3.5l.8-3.6 1 .2-1.9 8.5-1.1-.2-1.8-4.9a27.7 27.7 0 0 1-1-3.2c-.2 1.1-.4 2.1-.7 3.5l-.8 3.6zM128 43.5a8.2 8.2 0 0 1-2.7-.5 4.1 4.1 0 0 1-2.6-5.7 4.4 4.4 0 0 1 6-2.5 5.4 5.4 0 0 1 1.9 1.1l-.6.8a4.5 4.5 0 0 0-1.7-1 3.3 3.3 0 0 0-4.5 2 3.2 3.2 0 0 0 1.9 4.5 3.7 3.7 0 0 0 1.5.3l.9-2.4-1.7-.6.3-.8 2.7 1zM139.6 45.1c-1.5 2.6-3.8 3.1-5.8 2s-2.5-3.5-1.2-5.8 3.7-3.1 5.8-2 2.5 3.6 1.2 5.8zm-6-3.2c-.9 1.6-.9 3.6.7 4.4s3.2-.1 4.2-1.8 1-3.5-.7-4.4-3.2.2-4.2 1.8zM141.6 52.1l3.1-8.6 1 .7-1.6 4.2c-.4 1.2-.8 2.2-1.3 3.1l2.8-2 3.8-2.5 1 .7-7.8 5z"/></g></svg>